<svg width="700pt" height="700pt" viewBox="0 0 700 700" xmlns="http://www.w3.org/2000/svg"><path d="M157.5 157.5H105c-9.66 0-17.5 7.84-17.5 17.5v315a52.438 52.438 0 0 0 15.383 37.117A52.44 52.44 0 0 0 140 542.5h455c9.66 0 17.5-7.84 17.5-17.5V35c0-9.66-7.84-17.5-17.5-17.5H175c-9.66 0-17.5 7.84-17.5 17.5zm-17.5 350a17.435 17.435 0 0 1-12.371-5.129 17.435 17.435 0 0 1-5.129-12.37V192.5h35V490c0 4.636-1.836 9.1-5.129 12.37a17.435 17.435 0 0 1-12.37 5.129zm315-70c9.66 0 17.5 7.84 17.5 17.5s-7.84 17.5-17.5 17.5-17.5-7.84-17.5-17.5 7.84-17.5 17.5-17.5zm-210 35h140c9.66 0 17.5-7.84 17.5-17.5s-7.84-17.5-17.5-17.5H245c-9.66 0-17.5 7.84-17.5 17.5s7.84 17.5 17.5 17.5zm210-70h70c9.66 0 17.5-7.84 17.5-17.5s-7.84-17.5-17.5-17.5h-70c-9.66 0-17.5 7.84-17.5 17.5s7.84 17.5 17.5 17.5zm-210 0h140c9.66 0 17.5-7.84 17.5-17.5s-7.84-17.5-17.5-17.5H245c-9.66 0-17.5 7.84-17.5 17.5s7.84 17.5 17.5 17.5zm0-70h35c9.66 0 17.5-7.84 17.5-17.5s-7.84-17.5-17.5-17.5h-35c-9.66 0-17.5 7.84-17.5 17.5s7.84 17.5 17.5 17.5zm105 0h175c9.66 0 17.5-7.84 17.5-17.5s-7.84-17.5-17.5-17.5H350c-9.66 0-17.5 7.84-17.5 17.5s7.84 17.5 17.5 17.5zM367.5 105c0-9.66-7.84-17.5-17.5-17.5H245c-9.66 0-17.5 7.84-17.5 17.5v105c0 9.66 7.84 17.5 17.5 17.5h105c9.66 0 17.5-7.84 17.5-17.5zM420 227.5h105c9.66 0 17.5-7.84 17.5-17.5s-7.84-17.5-17.5-17.5H420c-9.66 0-17.5 7.84-17.5 17.5s7.84 17.5 17.5 17.5zm-87.5-105v70h-70v-70zm87.5 35h105c9.66 0 17.5-7.84 17.5-17.5s-7.84-17.5-17.5-17.5H420c-9.66 0-17.5 7.84-17.5 17.5s7.84 17.5 17.5 17.5z" fill-rule="evenodd"/></svg>