<svg width="700pt" height="700pt" viewBox="0 0 700 700" xmlns="http://www.w3.org/2000/svg"><path d="M192.5 122.5h-26.25a43.752 43.752 0 0 0-30.941 12.809A43.755 43.755 0 0 0 122.5 166.25V490a52.438 52.438 0 0 0 15.383 37.117A52.44 52.44 0 0 0 175 542.5h350a52.438 52.438 0 0 0 37.117-15.383A52.44 52.44 0 0 0 577.5 490V61.25c0-24.168-19.582-43.75-43.75-43.75h-297.5a43.752 43.752 0 0 0-30.941 12.809A43.755 43.755 0 0 0 192.5 61.25zm31.988 385h300.51c4.637 0 9.102-1.836 12.371-5.129a17.435 17.435 0 0 0 5.129-12.37V61.25c0-4.829-3.922-8.75-8.75-8.75h-297.5c-2.328 0-4.55.925-6.195 2.554a8.805 8.805 0 0 0-2.555 6.195V490c0 6.02-1.031 11.934-3.012 17.5zm-31.988-350V490c0 4.637-1.836 9.102-5.129 12.371-3.27 3.293-7.734 5.129-12.37 5.129s-9.103-1.836-12.372-5.129A17.435 17.435 0 0 1 157.5 490V166.25c0-2.328.926-4.55 2.555-6.195a8.805 8.805 0 0 1 6.195-2.555zm297.5 245c9.66 0 17.5 7.84 17.5 17.5s-7.84 17.5-17.5 17.5-17.5-7.84-17.5-17.5 7.84-17.5 17.5-17.5zm-210 35h140c9.66 0 17.5-7.84 17.5-17.5s-7.84-17.5-17.5-17.5H280c-9.66 0-17.5 7.84-17.5 17.5s7.84 17.5 17.5 17.5zm0-70h210c9.66 0 17.5-7.84 17.5-17.5s-7.84-17.5-17.5-17.5H280c-9.66 0-17.5 7.84-17.5 17.5s7.84 17.5 17.5 17.5zm0-70h35c9.66 0 17.5-7.84 17.5-17.5s-7.84-17.5-17.5-17.5h-35c-9.66 0-17.5 7.84-17.5 17.5s7.84 17.5 17.5 17.5zm105 0h105c9.66 0 17.5-7.84 17.5-17.5s-7.84-17.5-17.5-17.5H385c-9.66 0-17.5 7.84-17.5 17.5s7.84 17.5 17.5 17.5zM367.5 140c0-9.66-7.84-17.5-17.5-17.5h-70c-9.66 0-17.5 7.84-17.5 17.5v70c0 9.66 7.84 17.5 17.5 17.5h70c9.66 0 17.5-7.84 17.5-17.5zm52.5 87.5h70c9.66 0 17.5-7.84 17.5-17.5s-7.84-17.5-17.5-17.5h-70c-9.66 0-17.5 7.84-17.5 17.5s7.84 17.5 17.5 17.5zm-87.5-70v35h-35v-35zm87.5 0h70c9.66 0 17.5-7.84 17.5-17.5s-7.84-17.5-17.5-17.5h-70c-9.66 0-17.5 7.84-17.5 17.5s7.84 17.5 17.5 17.5z" fill-rule="evenodd"/></svg>