<?xml version="1.0" encoding="UTF-8"?>
<svg width="700pt" height="700pt" version="1.1" viewBox="0 0 700 700" xmlns="http://www.w3.org/2000/svg">
 <path d="m192.5 122.5h-26.25c-11.602 0-22.734 4.6016-30.941 12.809-8.207 8.207-12.809 19.34-12.809 30.941v323.75c0 13.93 5.5312 27.281 15.383 37.117 9.8359 9.8516 23.188 15.383 37.117 15.383h350c13.93 0 27.281-5.5312 37.117-15.383 9.8516-9.8359 15.383-23.188 15.383-37.117v-428.75c0-24.168-19.582-43.75-43.75-43.75h-297.5c-11.602 0-22.734 4.6016-30.941 12.809-8.207 8.207-12.809 19.34-12.809 30.941zm31.988 385h300.51c4.6367 0 9.1016-1.8359 12.371-5.1289 3.293-3.2695 5.1289-7.7344 5.1289-12.371v-428.75c0-4.8281-3.9219-8.75-8.75-8.75h-297.5c-2.3281 0-4.5508 0.92578-6.1953 2.5547-1.6289 1.6445-2.5547 3.8672-2.5547 6.1953v428.75c0 6.0195-1.0312 11.934-3.0117 17.5zm-31.988-350v332.5c0 4.6367-1.8359 9.1016-5.1289 12.371-3.2695 3.293-7.7344 5.1289-12.371 5.1289s-9.1016-1.8359-12.371-5.1289c-3.293-3.2695-5.1289-7.7344-5.1289-12.371v-323.75c0-2.3281 0.92578-4.5508 2.5547-6.1953 1.6445-1.6289 3.8672-2.5547 6.1953-2.5547zm297.5 245c9.6602 0 17.5 7.8398 17.5 17.5s-7.8398 17.5-17.5 17.5-17.5-7.8398-17.5-17.5 7.8398-17.5 17.5-17.5zm-210 35h140c9.6602 0 17.5-7.8398 17.5-17.5s-7.8398-17.5-17.5-17.5h-140c-9.6602 0-17.5 7.8398-17.5 17.5s7.8398 17.5 17.5 17.5zm0-70h210c9.6602 0 17.5-7.8398 17.5-17.5s-7.8398-17.5-17.5-17.5h-210c-9.6602 0-17.5 7.8398-17.5 17.5s7.8398 17.5 17.5 17.5zm0-70h35c9.6602 0 17.5-7.8398 17.5-17.5s-7.8398-17.5-17.5-17.5h-35c-9.6602 0-17.5 7.8398-17.5 17.5s7.8398 17.5 17.5 17.5zm105 0h105c9.6602 0 17.5-7.8398 17.5-17.5s-7.8398-17.5-17.5-17.5h-105c-9.6602 0-17.5 7.8398-17.5 17.5s7.8398 17.5 17.5 17.5zm-17.5-157.5c0-9.6602-7.8398-17.5-17.5-17.5h-70c-9.6602 0-17.5 7.8398-17.5 17.5v70c0 9.6602 7.8398 17.5 17.5 17.5h70c9.6602 0 17.5-7.8398 17.5-17.5zm52.5 87.5h70c9.6602 0 17.5-7.8398 17.5-17.5s-7.8398-17.5-17.5-17.5h-70c-9.6602 0-17.5 7.8398-17.5 17.5s7.8398 17.5 17.5 17.5zm-87.5-70v35h-35v-35zm87.5 0h70c9.6602 0 17.5-7.8398 17.5-17.5s-7.8398-17.5-17.5-17.5h-70c-9.6602 0-17.5 7.8398-17.5 17.5s7.8398 17.5 17.5 17.5z" fill-rule="evenodd"/>
</svg>
