<?xml version="1.0" encoding="UTF-8"?>
<svg width="700pt" height="700pt" version="1.1" viewBox="0 0 700 700" xmlns="http://www.w3.org/2000/svg">
 <path d="m157.5 157.5h-52.5c-9.6602 0-17.5 7.8398-17.5 17.5v315c0 13.93 5.5312 27.281 15.383 37.117 9.8359 9.8516 23.188 15.383 37.117 15.383h455c9.6602 0 17.5-7.8398 17.5-17.5v-490c0-9.6602-7.8398-17.5-17.5-17.5h-420c-9.6602 0-17.5 7.8398-17.5 17.5zm-17.5 350c-4.6367 0-9.1016-1.8359-12.371-5.1289-3.293-3.2695-5.1289-7.7344-5.1289-12.371v-297.5h35v297.5c0 4.6367-1.8359 9.1016-5.1289 12.371-3.2695 3.293-7.7344 5.1289-12.371 5.1289zm315-70c9.6602 0 17.5 7.8398 17.5 17.5s-7.8398 17.5-17.5 17.5-17.5-7.8398-17.5-17.5 7.8398-17.5 17.5-17.5zm-210 35h140c9.6602 0 17.5-7.8398 17.5-17.5s-7.8398-17.5-17.5-17.5h-140c-9.6602 0-17.5 7.8398-17.5 17.5s7.8398 17.5 17.5 17.5zm210-70h70c9.6602 0 17.5-7.8398 17.5-17.5s-7.8398-17.5-17.5-17.5h-70c-9.6602 0-17.5 7.8398-17.5 17.5s7.8398 17.5 17.5 17.5zm-210 0h140c9.6602 0 17.5-7.8398 17.5-17.5s-7.8398-17.5-17.5-17.5h-140c-9.6602 0-17.5 7.8398-17.5 17.5s7.8398 17.5 17.5 17.5zm0-70h35c9.6602 0 17.5-7.8398 17.5-17.5s-7.8398-17.5-17.5-17.5h-35c-9.6602 0-17.5 7.8398-17.5 17.5s7.8398 17.5 17.5 17.5zm105 0h175c9.6602 0 17.5-7.8398 17.5-17.5s-7.8398-17.5-17.5-17.5h-175c-9.6602 0-17.5 7.8398-17.5 17.5s7.8398 17.5 17.5 17.5zm17.5-227.5c0-9.6602-7.8398-17.5-17.5-17.5h-105c-9.6602 0-17.5 7.8398-17.5 17.5v105c0 9.6602 7.8398 17.5 17.5 17.5h105c9.6602 0 17.5-7.8398 17.5-17.5zm52.5 122.5h105c9.6602 0 17.5-7.8398 17.5-17.5s-7.8398-17.5-17.5-17.5h-105c-9.6602 0-17.5 7.8398-17.5 17.5s7.8398 17.5 17.5 17.5zm-87.5-105v70h-70v-70zm87.5 35h105c9.6602 0 17.5-7.8398 17.5-17.5s-7.8398-17.5-17.5-17.5h-105c-9.6602 0-17.5 7.8398-17.5 17.5s7.8398 17.5 17.5 17.5z" fill-rule="evenodd"/>
</svg>
